<svg xmlns="http://www.w3.org/2000/svg" viewBox="0 0 512 512">
  <rect width="512" height="512" rx="96" fill="#5b7a5e"/>
  <g transform="translate(256,240)">
    <path d="M-120,-80 Q-120,-100 -100,-100 L-10,-100 Q0,-100 0,-80 L0,80 Q0,100 -10,100 L-100,100 Q-120,100 -120,80Z" fill="#fffef9" opacity="0.95"/>
    <path d="M120,-80 Q120,-100 100,-100 L10,-100 Q0,-100 0,-80 L0,80 Q0,100 10,100 L100,100 Q120,100 120,80Z" fill="#fffef9" opacity="0.9"/>
    <line x1="-95" y1="-65" x2="-25" y2="-65" stroke="#5b7a5e" stroke-width="6" stroke-linecap="round"/>
    <line x1="-95" y1="-40" x2="-25" y2="-40" stroke="#5b7a5e" stroke-width="6" stroke-linecap="round" opacity="0.6"/>
    <line x1="-95" y1="-15" x2="-25" y2="-15" stroke="#5b7a5e" stroke-width="6" stroke-linecap="round" opacity="0.4"/>
    <line x1="25" y1="-65" x2="95" y2="-65" stroke="#5b7a5e" stroke-width="6" stroke-linecap="round"/>
    <line x1="25" y1="-40" x2="95" y2="-40" stroke="#5b7a5e" stroke-width="6" stroke-linecap="round" opacity="0.6"/>
    <line x1="25" y1="-15" x2="95" y2="-15" stroke="#5b7a5e" stroke-width="6" stroke-linecap="round" opacity="0.4"/>
  </g>
  <g transform="translate(256,370)">
    <circle cx="0" cy="0" r="36" fill="#fffef9" opacity="0.95"/>
    <polygon points="-10,-18 -10,18 18,0" fill="#5b7a5e"/>
  </g>
</svg>
